<svg xmlns="http://www.w3.org/2000/svg" xmlns:xlink="http://www.w3.org/1999/xlink" width="2270" zoomAndPan="magnify" viewBox="0 0 1702.5 225" height="300" preserveAspectRatio="xMidYMid meet" version="1.0"><defs><g/><clipPath id="c18e008839"><path d="M 0 0.03125 L 1702 0.03125 L 1702 224.964844 L 0 224.964844 Z M 0 0.03125 " clip-rule="nonzero"/></clipPath><clipPath id="7ea1175efd"><rect x="0" width="458" y="0" height="129"/></clipPath></defs><g clip-path="url(#c18e008839)"><path fill="#ffffff" d="M 0 0.03125 L 1702 0.03125 L 1702 224.96875 L 0 224.96875 Z M 0 0.03125 " fill-opacity="1" fill-rule="nonzero"/><path fill="#ffffff" d="M 0 0.03125 L 1702 0.03125 L 1702 224.96875 L 0 224.96875 Z M 0 0.03125 " fill-opacity="1" fill-rule="nonzero"/></g><path fill="#44c8f5" d="M 238.398438 4.15625 L 3.46875 4.15625 L 3.46875 220.84375 L 238.398438 4.15625 " fill-opacity="1" fill-rule="nonzero"/><path fill="#231f20" d="M 120.910156 4.15625 L 3.460938 4.15625 L 3.460938 112.550781 L 120.910156 4.15625 " fill-opacity="1" fill-rule="nonzero"/><path fill="#00a0e4" d="M 566.457031 51.1875 L 535.789062 173.765625 L 589.972656 173.765625 L 620.613281 51.1875 L 566.457031 51.1875 " fill-opacity="1" fill-rule="nonzero"/><path fill="#00a0e4" d="M 442.707031 122.230469 L 430.28125 122.230469 L 450.316406 86.871094 L 456.816406 122.230469 Z M 435 51.175781 L 365.316406 173.75 L 401.152344 173.75 L 412.71875 153.316406 L 462.46875 153.316406 L 466.175781 173.75 L 519.066406 173.75 L 496.585938 51.175781 L 435 51.175781 " fill-opacity="1" fill-rule="nonzero"/><path fill="#00a0e4" d="M 813.902344 51.1875 L 783.316406 173.765625 L 837.488281 173.765625 L 868.078125 51.1875 L 813.902344 51.1875 " fill-opacity="1" fill-rule="nonzero"/><path fill="#00a0e4" d="M 789.6875 51.1875 L 734.167969 51.1875 L 687.695312 91.285156 L 697.839844 51.1875 L 645.90625 51.1875 L 615.320312 173.765625 L 667.089844 173.765625 L 677.664062 131.449219 L 705.347656 173.765625 L 768.011719 173.765625 L 721.597656 109.570312 L 789.6875 51.1875 " fill-opacity="1" fill-rule="nonzero"/><path fill="#00a0e4" d="M 322.800781 106.894531 C 322.800781 106.894531 319.28125 146.707031 285.34375 146.707031 L 266.144531 146.707031 L 283.054688 80.59375 L 300.480469 80.59375 C 306.714844 80.632812 324.761719 82.25 322.800781 106.894531 Z M 320.050781 51.246094 L 306.039062 51.203125 L 238.242188 51.203125 L 207.65625 173.730469 L 274.976562 173.730469 L 301.609375 173.765625 C 339.109375 173.765625 376.011719 145.859375 376.011719 103.117188 C 376.011719 52.824219 320.050781 51.246094 320.050781 51.246094 " fill-opacity="1" fill-rule="nonzero"/><path fill="#00a0e4" d="M 997.480469 51.171875 L 979.40625 123.347656 L 955.332031 51.171875 L 895.078125 51.171875 L 864.464844 173.765625 L 901.933594 173.765625 L 920.179688 100.957031 L 944.332031 173.765625 L 1004.328125 173.765625 L 1034.984375 51.171875 L 997.480469 51.171875 " fill-opacity="1" fill-rule="nonzero"/><g transform="matrix(1, 0, 0, 1, 1064, 66)"><g clip-path="url(#7ea1175efd)"><g fill="#433d3f" fill-opacity="1"><g transform="translate(1.082553, 100.526811)"><g><path d="M 47.515625 -29.3125 L 47.515625 -36.328125 C 47.515625 -47.898438 46.945312 -55.203125 45.8125 -58.234375 C 44.539062 -61.710938 42.738281 -63.863281 40.40625 -64.6875 C 39.070312 -65.1875 37.457031 -65.4375 35.5625 -65.4375 C 33.664062 -65.4375 32.035156 -65.179688 30.671875 -64.671875 C 29.316406 -64.171875 28.195312 -63.285156 27.3125 -62.015625 C 26.425781 -60.753906 25.710938 -59.425781 25.171875 -58.03125 C 24.640625 -56.644531 24.21875 -54.691406 23.90625 -52.171875 C 23.519531 -48.492188 23.328125 -43.085938 23.328125 -35.953125 L 23.328125 -29.109375 C 23.328125 -21.398438 23.628906 -15.914062 24.234375 -12.65625 C 24.835938 -9.40625 25.582031 -7.082031 26.46875 -5.6875 C 28.425781 -2.59375 31.457031 -1.046875 35.5625 -1.046875 C 40.5625 -1.046875 43.800781 -3.144531 45.28125 -7.34375 C 46.769531 -11.550781 47.515625 -18.875 47.515625 -29.3125 Z M 35.375 0.953125 C 24.8125 0.953125 16.921875 -1.90625 11.703125 -7.625 C 6.492188 -13.351562 3.890625 -21.640625 3.890625 -32.484375 C 3.890625 -43.328125 6.6875 -51.863281 12.28125 -58.09375 C 17.875 -64.320312 25.789062 -67.4375 36.03125 -67.4375 C 46.28125 -67.4375 54.007812 -64.476562 59.21875 -58.5625 C 64.4375 -52.65625 67.046875 -44.265625 67.046875 -33.390625 C 67.046875 -22.515625 64.40625 -14.070312 59.125 -8.0625 C 53.851562 -2.050781 45.9375 0.953125 35.375 0.953125 Z M 35.375 0.953125 "/></g></g></g><g fill="#433d3f" fill-opacity="1"><g transform="translate(79.706381, 100.526811)"><g><path d="M 1.140625 -45.140625 L 24 -45.140625 L 24 -36.421875 C 25.007812 -39.328125 26.554688 -41.664062 28.640625 -43.4375 C 30.722656 -45.207031 33.882812 -46.09375 38.125 -46.09375 C 47.925781 -46.09375 52.828125 -40.8125 52.828125 -30.25 L 52.828125 -1.703125 L 58.140625 -1.703125 L 58.140625 0 L 31.296875 0 L 31.296875 -1.703125 L 35.1875 -1.703125 L 35.1875 -32.53125 C 35.1875 -36.320312 34.929688 -38.769531 34.421875 -39.875 C 33.921875 -40.988281 33.003906 -41.546875 31.671875 -41.546875 C 29.648438 -41.546875 27.863281 -40.21875 26.3125 -37.5625 C 24.769531 -34.90625 24 -31.679688 24 -27.890625 L 24 -1.703125 L 28.078125 -1.703125 L 28.078125 0 L 1.140625 0 L 1.140625 -1.703125 L 6.359375 -1.703125 L 6.359375 -43.4375 L 1.140625 -43.4375 Z M 1.140625 -45.140625 "/></g></g></g><g fill="#433d3f" fill-opacity="1"><g transform="translate(145.811162, 100.526811)"><g><path d="M 25.890625 0.953125 C 17.734375 0.953125 11.613281 -1.148438 7.53125 -5.359375 C 3.457031 -9.566406 1.421875 -15.414062 1.421875 -22.90625 C 1.421875 -30.394531 3.710938 -36.128906 8.296875 -40.109375 C 12.878906 -44.097656 18.710938 -46.09375 25.796875 -46.09375 C 40.148438 -46.09375 47.039062 -38.882812 46.46875 -24.46875 L 19.734375 -24.46875 L 19.734375 -20.765625 C 19.734375 -14.566406 20.519531 -9.882812 22.09375 -6.71875 C 23.675781 -3.5625 26.425781 -1.984375 30.34375 -1.984375 C 37.6875 -1.984375 42.492188 -5.90625 44.765625 -13.75 L 46.46875 -13.46875 C 45.269531 -8.914062 43.101562 -5.375 39.96875 -2.84375 C 36.84375 -0.3125 32.148438 0.953125 25.890625 0.953125 Z M 19.828125 -26.359375 L 29.59375 -26.359375 L 29.59375 -31.015625 C 29.59375 -36.140625 29.289062 -39.632812 28.6875 -41.5 C 28.09375 -43.363281 26.894531 -44.296875 25.09375 -44.296875 C 23.289062 -44.296875 21.960938 -43.296875 21.109375 -41.296875 C 20.253906 -39.304688 19.828125 -35.878906 19.828125 -31.015625 Z M 19.828125 -26.359375 "/></g></g></g><g fill="#433d3f" fill-opacity="1"><g transform="translate(202.431822, 100.526811)"><g><path d="M 1.984375 -66.390625 L 30.34375 -66.390625 C 39.132812 -66.390625 45.726562 -65.203125 50.125 -62.828125 C 54.519531 -60.460938 56.71875 -56.46875 56.71875 -50.84375 C 56.71875 -42.175781 51.5 -36.988281 41.0625 -35.28125 L 41.0625 -35.09375 C 53.707031 -33.507812 60.03125 -28.007812 60.03125 -18.59375 C 60.03125 -11.695312 57.4375 -6.875 52.25 -4.125 C 47.070312 -1.375 39.613281 0 29.875 0 L 1.984375 0 L 1.984375 -1.796875 L 8.15625 -1.796875 L 8.15625 -64.59375 L 1.984375 -64.59375 Z M 26.65625 -33.578125 L 26.65625 -1.796875 L 31.109375 -1.796875 C 34.585938 -1.796875 37.019531 -3 38.40625 -5.40625 C 39.800781 -7.8125 40.5 -11.351562 40.5 -16.03125 L 40.5 -21.0625 C 40.5 -25.226562 39.644531 -28.351562 37.9375 -30.4375 C 36.226562 -32.53125 33.191406 -33.578125 28.828125 -33.578125 Z M 26.65625 -64.59375 L 26.65625 -35.375 L 29.109375 -35.375 C 32.398438 -35.375 34.691406 -36.367188 35.984375 -38.359375 C 37.285156 -40.359375 37.9375 -43.410156 37.9375 -47.515625 L 37.9375 -51.96875 C 37.9375 -56.65625 37.363281 -59.929688 36.21875 -61.796875 C 35.082031 -63.660156 32.90625 -64.59375 29.6875 -64.59375 Z M 26.65625 -64.59375 "/></g></g></g><g fill="#433d3f" fill-opacity="1"><g transform="translate(272.614776, 100.526811)"><g><path d="M 31.578125 -18.6875 L 31.578125 -26.75 C 31.578125 -32.882812 31.242188 -37.359375 30.578125 -40.171875 C 29.921875 -42.984375 28.390625 -44.390625 25.984375 -44.390625 C 24.597656 -44.390625 23.476562 -43.992188 22.625 -43.203125 C 21.769531 -42.410156 21.148438 -41.097656 20.765625 -39.265625 C 20.203125 -36.421875 19.921875 -32.085938 19.921875 -26.265625 L 19.921875 -18.875 C 19.921875 -11.976562 20.125 -7.832031 20.53125 -6.4375 C 20.945312 -5.050781 21.375 -3.914062 21.8125 -3.03125 C 22.507812 -1.519531 23.867188 -0.765625 25.890625 -0.765625 C 28.359375 -0.765625 29.972656 -2.1875 30.734375 -5.03125 C 31.296875 -7.050781 31.578125 -11.601562 31.578125 -18.6875 Z M 25.703125 0.953125 C 17.796875 0.953125 11.816406 -1.066406 7.765625 -5.109375 C 3.722656 -9.160156 1.703125 -14.960938 1.703125 -22.515625 C 1.703125 -30.078125 3.867188 -35.894531 8.203125 -39.96875 C 12.535156 -44.050781 18.617188 -46.09375 26.453125 -46.09375 C 34.296875 -46.09375 40.144531 -44.210938 44 -40.453125 C 47.863281 -36.691406 49.796875 -30.953125 49.796875 -23.234375 C 49.796875 -7.109375 41.765625 0.953125 25.703125 0.953125 Z M 25.703125 0.953125 "/></g></g></g><g fill="#433d3f" fill-opacity="1"><g transform="translate(331.796135, 100.526811)"><g><path d="M 31.578125 -18.6875 L 31.578125 -26.75 C 31.578125 -32.882812 31.242188 -37.359375 30.578125 -40.171875 C 29.921875 -42.984375 28.390625 -44.390625 25.984375 -44.390625 C 24.597656 -44.390625 23.476562 -43.992188 22.625 -43.203125 C 21.769531 -42.410156 21.148438 -41.097656 20.765625 -39.265625 C 20.203125 -36.421875 19.921875 -32.085938 19.921875 -26.265625 L 19.921875 -18.875 C 19.921875 -11.976562 20.125 -7.832031 20.53125 -6.4375 C 20.945312 -5.050781 21.375 -3.914062 21.8125 -3.03125 C 22.507812 -1.519531 23.867188 -0.765625 25.890625 -0.765625 C 28.359375 -0.765625 29.972656 -2.1875 30.734375 -5.03125 C 31.296875 -7.050781 31.578125 -11.601562 31.578125 -18.6875 Z M 25.703125 0.953125 C 17.796875 0.953125 11.816406 -1.066406 7.765625 -5.109375 C 3.722656 -9.160156 1.703125 -14.960938 1.703125 -22.515625 C 1.703125 -30.078125 3.867188 -35.894531 8.203125 -39.96875 C 12.535156 -44.050781 18.617188 -46.09375 26.453125 -46.09375 C 34.296875 -46.09375 40.144531 -44.210938 44 -40.453125 C 47.863281 -36.691406 49.796875 -30.953125 49.796875 -23.234375 C 49.796875 -7.109375 41.765625 0.953125 25.703125 0.953125 Z M 25.703125 0.953125 "/></g></g></g><g fill="#433d3f" fill-opacity="1"><g transform="translate(390.977495, 100.526811)"><g><path d="M 31.96875 0 L 31.96875 -1.703125 L 36.328125 -1.703125 L 25.609375 -23.71875 L 23.8125 -23.234375 L 23.8125 -1.703125 L 28.171875 -1.703125 L 28.171875 0 L 0.953125 0 L 0.953125 -1.703125 L 6.171875 -1.703125 L 6.171875 -69.421875 L 0.5625 -69.421875 L 0.5625 -71.140625 L 23.8125 -71.140625 L 23.8125 -25.140625 L 25.328125 -25.703125 L 46.65625 -43.4375 L 37.75 -43.4375 L 37.75 -45.140625 L 56.4375 -45.140625 L 56.4375 -43.4375 L 49.796875 -43.4375 L 38.5 -33.859375 L 54.921875 -1.703125 L 58.328125 -1.703125 L 58.328125 0 Z M 31.96875 0 "/></g></g></g></g></g></svg>