<?xml version="1.0" encoding="UTF-8"?><svg id="Layer_1" xmlns="http://www.w3.org/2000/svg" viewBox="0 0 172.45 187.09"><defs><style>.cls-1{fill:#00a0e3;}.cls-1,.cls-2,.cls-3{fill-rule:evenodd;}.cls-2{fill:#231f20;}.cls-3{fill:#5bcaf4;}</style></defs><polygon class="cls-3" points="165.95 31.52 0 31.52 0 187.09 165.95 31.52 165.95 31.52 165.95 31.52"/><polygon class="cls-2" points="84.1 31.52 0 31.52 0 110.36 84.1 31.52 84.1 31.52 84.1 31.52"/><polygon class="cls-1" points="79.74 25.68 86.19 0 74.84 0 68.38 25.68 79.74 25.68 79.74 25.68 79.74 25.68"/><polygon class="cls-1" points="131.22 25.68 137.67 0 126.32 0 119.86 25.68 131.22 25.68 131.22 25.68 131.22 25.68"/><polygon class="cls-1" points="155.79 0 143.22 0 136.77 25.68 144.7 25.68 148.42 10.76 153.5 25.68 166 25.68 172.45 0 164.46 0 160.74 14.83 155.79 0 155.79 0 155.79 0"/><polygon class="cls-1" points="121.51 0 109.69 0 100.22 8.25 102.29 0 91.36 0 84.91 25.68 95.84 25.68 97.96 17.24 103.64 25.68 116.9 25.68 107.24 12.41 121.51 0 121.51 0 121.51 0"/><path class="cls-1" d="M35.13,10.89c0,11.14-10.13,14.79-14.28,14.79H0L6.45,0h14.9c10.25,0,13.77,5.29,13.77,10.89h0ZM16.4,20c5.25,0,7.58-4.75,7.58-9.24s-3.94-4.53-5.25-4.53-3.1.09-3.1.09h0l-3.41,13.55h0s2.44.12,4.18.12h0Z"/><path class="cls-1" d="M47.53,0l-14.78,25.68h7.74l2.25-4.01h10.42l.71,4.01h10.96L60.32,0h-12.79ZM46.45,15.05l4.22-7.52,1.33,7.52h-5.54Z"/></svg>